PathFileType	4	(X/Y/Z)	C:\Users\italobelli\Desktop\GitHub\PTbot_officialCBL\Personal_Results\ABD03_noisy2.trc
DataRate	CameraRate	NumFrames	NumMarkers	Units	OrigDataRate	OrigDataStartFrame	OrigNumFrames
106.533333	106.533333	17	9	m	106.533333	501	800
Frame#	Time		gu		centelbow		EpL		centpxt8		centijc7		ij		ts		aa		ai
			X1	Y1	Z1	X2	Y2	Z2	X3	Y3	Z3	X4	Y4	Z4	X5	Y5	Z5	X6	Y6	Z6	X7	Y7	Z7	X8	Y8	Z8	X9	Y9	Z9

501	4.6934	-0.12043	0.066928	0.1048	-0.15572	0.22404	0.29493	-0.17283	0.24098	0.27375	-0.046816	-0.15316	-0.008669	-0.046816	0.031938	-0.008669	0	0	0	-0.1272	-0.013864	0.029019	-0.16317	0.075096	0.098484	-0.13583	-0.080284	0.11858
502	4.7028	-0.12039	0.066798	0.10506	-0.15608	0.22162	0.29672	-0.17327	0.23872	0.27576	-0.046816	-0.15316	-0.008669	-0.046816	0.031938	-0.008669	0	0	0	-0.12699	-0.013423	0.028635	-0.16306	0.074846	0.098831	-0.13515	-0.080568	0.11766
503	4.7121	-0.12036	0.066663	0.10533	-0.15642	0.21916	0.29852	-0.1737	0.23642	0.27778	-0.046816	-0.15316	-0.008669	-0.046816	0.031938	-0.008669	0	0	0	-0.12678	-0.012973	0.028249	-0.16295	0.074595	0.099184	-0.13445	-0.080849	0.11672
504	4.7215	-0.12031	0.066524	0.1056	-0.15675	0.21665	0.30032	-0.17412	0.23407	0.27981	-0.046816	-0.15316	-0.008669	-0.046816	0.031938	-0.008669	0	0	0	-0.12657	-0.012514	0.027863	-0.16283	0.074344	0.099543	-0.13374	-0.081128	0.11578
505	4.7309	-0.12027	0.066379	0.10588	-0.15706	0.2141	0.30211	-0.17452	0.23167	0.28184	-0.046816	-0.15316	-0.008669	-0.046816	0.031938	-0.008669	0	0	0	-0.12637	-0.012046	0.027476	-0.16272	0.074091	0.099906	-0.13303	-0.081404	0.11483
506	4.7403	-0.12023	0.066231	0.10616	-0.15736	0.2115	0.30391	-0.17491	0.22923	0.28387	-0.046816	-0.15316	-0.008669	-0.046816	0.031938	-0.008669	0	0	0	-0.12616	-0.011571	0.027089	-0.1626	0.073838	0.10027	-0.1323	-0.081676	0.11388
507	4.7497	-0.12019	0.066078	0.10645	-0.15765	0.20886	0.3057	-0.17528	0.22675	0.28589	-0.046816	-0.15316	-0.008669	-0.046816	0.031938	-0.008669	0	0	0	-0.12596	-0.011089	0.026703	-0.16248	0.073584	0.10065	-0.13157	-0.081945	0.11293
508	4.7591	-0.12015	0.065922	0.10674	-0.15792	0.20618	0.30748	-0.17565	0.22423	0.28792	-0.046816	-0.15316	-0.008669	-0.046816	0.031938	-0.008669	0	0	0	-0.12576	-0.010602	0.026319	-0.16235	0.07333	0.10102	-0.13083	-0.082209	0.11198
509	4.7685	-0.1201	0.065762	0.10704	-0.15818	0.20347	0.30926	-0.17599	0.22167	0.28993	-0.046816	-0.15316	-0.008669	-0.046816	0.031938	-0.008669	0	0	0	-0.12556	-0.010111	0.025936	-0.16223	0.073075	0.1014	-0.13009	-0.082469	0.11102
510	4.7778	-0.12006	0.065598	0.10734	-0.15843	0.20072	0.31103	-0.17633	0.21908	0.29194	-0.046816	-0.15316	-0.008669	-0.046816	0.031938	-0.008669	0	0	0	-0.12536	-0.0096152	0.025555	-0.1621	0.07282	0.10178	-0.12934	-0.082724	0.11007
511	4.7872	-0.12002	0.065431	0.10765	-0.15866	0.19794	0.31279	-0.17664	0.21645	0.29395	-0.046816	-0.15316	-0.008669	-0.046816	0.031938	-0.008669	0	0	0	-0.12516	-0.0091169	0.025177	-0.16197	0.072565	0.10217	-0.1286	-0.082974	0.10911
512	4.7966	-0.11997	0.065261	0.10796	-0.15887	0.19512	0.31454	-0.17694	0.21379	0.29594	-0.046816	-0.15316	-0.008669	-0.046816	0.031938	-0.008669	0	0	0	-0.12497	-0.0086167	0.024802	-0.16184	0.072309	0.10256	-0.12785	-0.083218	0.10817
513	4.806	-0.11993	0.065089	0.10828	-0.15907	0.19227	0.31628	-0.17723	0.2111	0.29791	-0.046816	-0.15316	-0.008669	-0.046816	0.031938	-0.008669	0	0	0	-0.12477	-0.0081154	0.024432	-0.16171	0.072054	0.10294	-0.12711	-0.083455	0.10722
514	4.8154	-0.11988	0.064914	0.1086	-0.15925	0.1894	0.318	-0.17749	0.20838	0.29988	-0.046816	-0.15316	-0.008669	-0.046816	0.031938	-0.008669	0	0	0	-0.12458	-0.0076139	0.024066	-0.16158	0.071798	0.10333	-0.12637	-0.083687	0.10628
515	4.8248	-0.11984	0.064736	0.10893	-0.15941	0.1865	0.3197	-0.17774	0.20563	0.30182	-0.046816	-0.15316	-0.008669	-0.046816	0.031938	-0.008669	0	0	0	-0.12439	-0.0071132	0.023705	-0.16144	0.071543	0.10372	-0.12563	-0.083911	0.10535
516	4.8342	-0.1198	0.064557	0.10926	-0.15956	0.18358	0.32139	-0.17798	0.20285	0.30375	-0.046816	-0.15316	-0.008669	-0.046816	0.031938	-0.008669	0	0	0	-0.1242	-0.0066141	0.023349	-0.16131	0.071288	0.10411	-0.1249	-0.084128	0.10443
517	4.8436	-0.11975	0.064375	0.10959	-0.15969	0.18063	0.32306	-0.17819	0.20005	0.30565	-0.046816	-0.15316	-0.008669	-0.046816	0.031938	-0.008669	0	0	0	-0.12402	-0.0061175	0.023	-0.16118	0.071033	0.1045	-0.12418	-0.084337	0.10351
